<?xml version="1.0" encoding="UTF-8" standalone="no"?>
<!-- Created with Inkscape (http://www.inkscape.org/) -->

<svg
   xmlns:dc="http://purl.org/dc/elements/1.1/"
   xmlns:cc="http://creativecommons.org/ns#"
   xmlns:rdf="http://www.w3.org/1999/02/22-rdf-syntax-ns#"
   xmlns:svg="http://www.w3.org/2000/svg"
   xmlns="http://www.w3.org/2000/svg"
   xmlns:sodipodi="http://sodipodi.sourceforge.net/DTD/sodipodi-0.dtd"
   xmlns:inkscape="http://www.inkscape.org/namespaces/inkscape"
   version="1.1"
   id="svg2"
   xml:space="preserve"
   width="2133.3333"
   height="2133.3333"
   viewBox="0 0 2133.3333 2133.3333"
   sodipodi:docname="Avatar_rrss_vectorial.ai.svg"
   inkscape:version="0.92.1 unknown"><metadata
     id="metadata8"><rdf:RDF><cc:Work
         rdf:about=""><dc:format>image/svg+xml</dc:format><dc:type
           rdf:resource="http://purl.org/dc/dcmitype/StillImage" /><dc:title></dc:title></cc:Work></rdf:RDF></metadata><defs
     id="defs6"><clipPath
       clipPathUnits="userSpaceOnUse"
       id="clipPath18"><path
         d="M 0,1600 H 1600 V 0 H 0 Z"
         id="path16"
         inkscape:connector-curvature="0" /></clipPath></defs><sodipodi:namedview
     pagecolor="#ffffff"
     bordercolor="#666666"
     borderopacity="1"
     objecttolerance="10"
     gridtolerance="10"
     guidetolerance="10"
     inkscape:pageopacity="1"
     inkscape:pageshadow="2"
     inkscape:window-width="2560"
     inkscape:window-height="1375"
     id="namedview4"
     showgrid="false"
     inkscape:zoom="0.110625"
     inkscape:cx="-845.19771"
     inkscape:cy="1066.6666"
     inkscape:window-x="0"
     inkscape:window-y="0"
     inkscape:window-maximized="1"
     inkscape:current-layer="g10" /><g
     id="g10"
     inkscape:groupmode="layer"
     inkscape:label="Avatar_rrss_vectorial"
     transform="matrix(1.3333333,0,0,-1.3333333,0,2133.3333)"><g
       id="g12"><g
         id="g14"
         clip-path="url(#clipPath18)"><g
           id="g20"
           transform="translate(692.3145,521.6621)"><path
             d="m 0,0 c 0,25.563 -3.766,45.853 -11.297,60.818 -7.522,14.987 -20.369,22.469 -38.498,22.469 -11.016,0 -20.318,-2.306 -27.928,-6.919 -7.608,-4.612 -13.592,-11.21 -17.982,-19.782 V -54.416 c 4.39,-8.097 10.412,-14.257 18.1,-18.45 7.698,-4.224 17.126,-6.316 28.318,-6.316 18.293,0 31.079,6.433 38.359,19.316 C -3.65,-47.002 0,-28.746 0,-5.1 Z m 70.676,-5.1 c 0,-39.196 -8.738,-70.53 -26.225,-94.002 -17.488,-23.47 -42.748,-35.216 -75.796,-35.216 -15.375,0 -28.726,3.201 -40.061,9.585 -11.336,6.404 -20.893,15.667 -28.667,27.812 l -5.102,-32.288 h -62.288 v 328.851 l -36.557,7.278 v 42.749 H -95.705 V 105.64 c 7.619,10.529 16.727,25.105 27.344,30.779 10.588,5.673 22.791,8.495 36.549,8.495 33.349,0 58.775,-12.592 76.263,-37.757 C 61.938,81.974 70.676,41.921 70.676,0 Z"
             style="fill:#76b2e1;fill-opacity:1;fill-rule:nonzero;stroke:none"
             id="path22"
             inkscape:connector-curvature="0" /></g><g
           id="g24"
           transform="translate(772.46,436.1162)"><path
             d="m 0,0 34.554,7.404 v 165.565 l -35.44,7.191 v 50.737 l 102.545,0.206 3.211,-45.551 c 8.886,13.651 19.812,24.259 32.813,31.829 12.992,7.571 27.549,11.347 43.682,11.347 26.974,0 48.025,-8.466 63.165,-25.417 15.142,-16.932 22.701,-43.508 22.701,-79.698 V 7.404 L 301.769,0 V -43.177 H 164.095 V 0 L 194.92,7.404 V 123.37 c 0,17.934 -3.61,30.634 -10.839,38.116 -7.238,7.484 -18.178,11.23 -32.814,11.23 -9.553,0 -18.108,-1.927 -25.67,-5.8 -7.571,-3.873 -13.906,-9.342 -18.993,-16.406 V 7.404 L 135.708,0 V -43.177 L 0,-43.177 Z"
             style="fill:#76b2e1;fill-opacity:1;fill-rule:nonzero;stroke:none"
             id="path26"
             inkscape:connector-curvature="0" /></g><g
           id="g28"
           transform="translate(1153.168,519.4141)"><path
             d="m 0,0 c 0,-23.229 3.93,-41.503 11.791,-54.824 7.846,-13.333 20.592,-19.999 38.264,-19.999 10.959,0 20.24,1.986 27.841,6.014 7.609,4 13.702,9.849 18.284,17.537 V 64.039 c -4.582,8 -10.675,14.208 -18.284,18.635 -7.601,4.419 -16.708,6.617 -27.343,6.617 C 33.045,89.291 20.24,81.517 12.161,65.995 4.047,50.455 0,30.176 0,5.167 Z m -71.621,5.167 c 0,41.863 9.107,75.63 27.361,101.3 18.217,25.671 43.771,38.515 76.653,38.515 14.878,0 27.976,-3.308 39.255,-9.925 11.279,-6.637 20.93,-16.077 28.95,-28.346 l 5.146,41.055 h 55.828 v -265.279 c 0,-35.003 -4.513,-62.911 -26.506,-83.784 -21.992,-20.844 -52.226,-31.276 -90.656,-31.276 -13.408,0 -27.637,1.84 -42.68,5.518 -15.054,3.688 -28.96,8.709 -41.706,15.103 l 13.244,50.27 c 11.452,-4.894 22.896,-8.777 34.34,-11.637 11.445,-2.862 23.549,-4.302 36.306,-4.302 17.507,0 30.586,5.323 39.266,15.939 8.66,10.646 13,25.448 13,44.413 v 17.418 c -7.853,-9.963 -17.088,-17.584 -27.735,-22.829 -10.624,-5.216 -22.806,-7.843 -36.539,-7.843 -32.551,0 -57.949,11.989 -76.184,35.946 C -62.514,-70.618 -71.621,-39.09 -71.621,0 Z"
             style="fill:#76b2e1;fill-opacity:1;fill-rule:nonzero;stroke:none"
             id="path30"
             inkscape:connector-curvature="0" /></g><g
           id="g32"
           transform="translate(1187.6035,904.5586)"><path
             d="M 0,0 -28.794,-89.117 81.382,-168.308 H 125.95 Z"
             style="fill:#76b2e1;fill-opacity:1;fill-rule:nonzero;stroke:none"
             id="path34"
             inkscape:connector-curvature="0" /></g><g
           id="g36"
           transform="translate(1119.1855,802.4604)"><path
             d="m 0,0 34.604,107.285 -91.082,-66.473 -91.327,66.064 35.002,-107.227 -90.441,-65.869 h 115.723 l 28.59,-88.046 4.495,-14.393 16.348,50.602 2.676,8.641 h 0.128 l 0.584,1.733 13.332,41.278 h 0.815 l 0.06,0.185 h 77.206 l 34.681,0.058 z"
             style="fill:#d60057;fill-opacity:1;fill-rule:nonzero;stroke:none"
             id="path38"
             inkscape:connector-curvature="0" /></g><g
           id="g40"
           transform="translate(859.3281,737.252)"><path
             d="M 0,0 106.397,78.618 68.895,192.637 C 58.523,189.143 54.533,186.944 45.893,182.176 -25.854,142.444 -39.857,73.675 -42.137,55.974 Z"
             style="fill:#76b2e1;fill-opacity:1;fill-rule:nonzero;stroke:none"
             id="path42"
             inkscape:connector-curvature="0" /></g><g
           id="g44"
           transform="translate(1089.1953,1037.4258)"><path
             d="m 0,0 c -44.813,-69.052 -67.943,-81.993 -106.614,-92.931 l 80.067,-57.939 90.354,65.588 z"
             style="fill:#76b2e1;fill-opacity:1;fill-rule:nonzero;stroke:none"
             id="path46"
             inkscape:connector-curvature="0" /></g><g
           id="g48"
           transform="translate(692.3145,521.6621)"><path
             d="m 0,0 c 0,25.563 -3.766,45.853 -11.297,60.818 -7.522,14.987 -20.369,22.469 -38.498,22.469 -11.016,0 -20.318,-2.306 -27.928,-6.919 -7.608,-4.612 -13.592,-11.21 -17.982,-19.782 V -54.416 c 4.39,-8.097 10.412,-14.257 18.1,-18.45 7.698,-4.224 17.126,-6.316 28.318,-6.316 18.293,0 31.079,6.433 38.359,19.316 C -3.65,-47.002 0,-28.746 0,-5.1 Z m 70.676,-5.1 c 0,-39.196 -8.738,-70.53 -26.225,-94.002 -17.488,-23.47 -42.748,-35.216 -75.796,-35.216 -15.375,0 -28.726,3.201 -40.061,9.585 -11.336,6.404 -20.893,15.667 -28.667,27.812 l -5.102,-32.288 h -62.288 v 328.851 l -36.557,7.278 v 42.749 H -95.705 V 105.64 c 7.619,10.529 16.727,25.105 27.344,30.779 10.588,5.673 22.791,8.495 36.549,8.495 33.349,0 58.775,-12.592 76.263,-37.757 C 61.938,81.974 70.676,41.921 70.676,0 Z"
             style="fill:#6aade4;fill-opacity:1;fill-rule:nonzero;stroke:none"
             id="path50"
             inkscape:connector-curvature="0" /></g><g
           id="g52"
           transform="translate(772.46,436.1162)"><path
             d="m 0,0 34.554,7.404 v 165.565 l -35.44,7.191 v 50.737 l 102.545,0.206 3.211,-45.551 c 8.886,13.651 19.812,24.259 32.813,31.829 12.992,7.571 27.549,11.347 43.682,11.347 26.974,0 48.025,-8.466 63.165,-25.417 15.142,-16.932 22.701,-43.508 22.701,-79.698 V 7.404 L 301.769,0 V -43.177 H 164.095 V 0 L 194.92,7.404 V 123.37 c 0,17.934 -3.61,30.634 -10.839,38.116 -7.238,7.484 -18.178,11.23 -32.814,11.23 -9.553,0 -18.108,-1.927 -25.67,-5.8 -7.571,-3.873 -13.906,-9.342 -18.993,-16.406 V 7.404 L 135.708,0 V -43.177 L 0,-43.177 Z"
             style="fill:#6aade4;fill-opacity:1;fill-rule:nonzero;stroke:none"
             id="path54"
             inkscape:connector-curvature="0" /></g><g
           id="g56"
           transform="translate(1153.168,519.4141)"><path
             d="m 0,0 c 0,-23.229 3.93,-41.503 11.791,-54.824 7.846,-13.333 20.592,-19.999 38.264,-19.999 10.959,0 20.24,1.986 27.841,6.014 7.609,4 13.702,9.849 18.284,17.537 V 64.039 c -4.582,8 -10.675,14.208 -18.284,18.635 -7.601,4.419 -16.708,6.617 -27.343,6.617 C 33.045,89.291 20.24,81.517 12.161,65.995 4.047,50.455 0,30.176 0,5.167 Z m -71.621,5.167 c 0,41.863 9.107,75.63 27.361,101.3 18.217,25.671 43.771,38.515 76.653,38.515 14.878,0 27.976,-3.308 39.255,-9.925 11.279,-6.637 20.93,-16.077 28.95,-28.346 l 5.146,41.055 h 55.828 v -265.279 c 0,-35.003 -4.513,-62.911 -26.506,-83.784 -21.992,-20.844 -52.226,-31.276 -90.656,-31.276 -13.408,0 -27.637,1.84 -42.68,5.518 -15.054,3.688 -28.96,8.709 -41.706,15.103 l 13.244,50.27 c 11.452,-4.894 22.896,-8.777 34.34,-11.637 11.445,-2.862 23.549,-4.302 36.306,-4.302 17.507,0 30.586,5.323 39.266,15.939 8.66,10.646 13,25.448 13,44.413 v 17.418 c -7.853,-9.963 -17.088,-17.584 -27.735,-22.829 -10.624,-5.216 -22.806,-7.843 -36.539,-7.843 -32.551,0 -57.949,11.989 -76.184,35.946 C -62.514,-70.618 -71.621,-39.09 -71.621,0 Z"
             style="fill:#6aade4;fill-opacity:1;fill-rule:nonzero;stroke:none"
             id="path58"
             inkscape:connector-curvature="0" /></g><g
           id="g60"
           transform="translate(1187.6035,904.5586)"><path
             d="M 0,0 -28.794,-89.117 81.382,-168.308 H 125.95 Z"
             style="fill:#6aade4;fill-opacity:1;fill-rule:nonzero;stroke:none"
             id="path62"
             inkscape:connector-curvature="0" /></g><g
           id="g64"
           transform="translate(1119.1855,802.4604)"><path
             d="m 0,0 34.604,107.285 -91.082,-66.473 -91.327,66.064 35.002,-107.227 -90.441,-65.869 h 115.723 l 28.59,-88.046 4.495,-14.393 16.348,50.602 2.676,8.641 h 0.128 l 0.584,1.733 13.332,41.278 h 0.815 l 0.06,0.185 h 77.206 l 34.681,0.058 z"
             style="fill:#ca005d;fill-opacity:1;fill-rule:nonzero;stroke:none"
             id="path66"
             inkscape:connector-curvature="0" /></g><g
           id="g68"
           transform="translate(859.3281,737.252)"><path
             d="M 0,0 106.397,78.618 68.895,192.637 C 58.523,189.143 54.533,186.944 45.893,182.176 -25.854,142.444 -39.857,73.675 -42.137,55.974 Z"
             style="fill:#6aade4;fill-opacity:1;fill-rule:nonzero;stroke:none"
             id="path70"
             inkscape:connector-curvature="0" /></g><g
           id="g72"
           transform="translate(1089.1953,1037.4258)"><path
             d="m 0,0 c -44.813,-69.052 -67.943,-81.993 -106.614,-92.931 l 80.067,-57.939 90.354,65.588 z"
             style="fill:#6aade4;fill-opacity:1;fill-rule:nonzero;stroke:none"
             id="path74"
             inkscape:connector-curvature="0" /></g></g></g></g></svg>