<?xml version="1.0" encoding="UTF-8" standalone="no"?>
<!-- Created with Inkscape (http://www.inkscape.org/) -->

<svg
   xmlns:dc="http://purl.org/dc/elements/1.1/"
   xmlns:cc="http://creativecommons.org/ns#"
   xmlns:rdf="http://www.w3.org/1999/02/22-rdf-syntax-ns#"
   xmlns:svg="http://www.w3.org/2000/svg"
   xmlns="http://www.w3.org/2000/svg"
   xmlns:sodipodi="http://sodipodi.sourceforge.net/DTD/sodipodi-0.dtd"
   xmlns:inkscape="http://www.inkscape.org/namespaces/inkscape"
   version="1.1"
   id="svg2"
   xml:space="preserve"
   width="2133.3333"
   height="2133.3333"
   viewBox="0 0 2133.3333 2133.3333"
   sodipodi:docname="Versión1_logo_cor_1tinta.svg"
   inkscape:version="0.92.1 unknown"><metadata
     id="metadata8"><rdf:RDF><cc:Work
         rdf:about=""><dc:format>image/svg+xml</dc:format><dc:type
           rdf:resource="http://purl.org/dc/dcmitype/StillImage" /><dc:title></dc:title></cc:Work></rdf:RDF></metadata><defs
     id="defs6"><clipPath
       clipPathUnits="userSpaceOnUse"
       id="clipPath20"><path
         d="M 0,1600 H 1600 V 0 H 0 Z"
         id="path18"
         inkscape:connector-curvature="0" /></clipPath></defs><sodipodi:namedview
     pagecolor="#ffffff"
     bordercolor="#666666"
     borderopacity="1"
     objecttolerance="10"
     gridtolerance="10"
     guidetolerance="10"
     inkscape:pageopacity="0"
     inkscape:pageshadow="2"
     inkscape:window-width="843"
     inkscape:window-height="480"
     id="namedview4"
     showgrid="false"
     inkscape:zoom="0.110625"
     inkscape:cx="72.316381"
     inkscape:cy="1066.6666"
     inkscape:window-x="0"
     inkscape:window-y="0"
     inkscape:window-maximized="0"
     inkscape:current-layer="g10" /><g
     id="g10"
     inkscape:groupmode="layer"
     inkscape:label="Versión1_logo_cor_1tinta"
     transform="matrix(1.3333333,0,0,-1.3333333,0,2133.3333)"><path
       d="M 0,0 H 1600 V 1600 H 0 Z"
       style="fill:#76b2e1;fill-opacity:1;fill-rule:nonzero;stroke:none"
       id="path12"
       inkscape:connector-curvature="0" /><g
       id="g14"><g
         id="g16"
         clip-path="url(#clipPath20)"><g
           id="g22"
           transform="translate(707.6182,534.0273)"><path
             d="m 0,0 c 0,25.459 -3.754,45.663 -11.25,60.57 -7.5,14.915 -20.279,22.372 -38.342,22.372 -10.957,0 -20.23,-2.296 -27.803,-6.887 C -84.982,71.45 -90.943,64.886 -95.297,56.344 V -54.185 c 4.354,-8.069 10.356,-14.192 18.014,-18.384 7.662,-4.192 17.058,-6.284 28.189,-6.284 18.209,0 30.957,6.403 38.211,19.226 C -3.635,-46.804 0,-28.632 0,-5.085 Z m 70.375,-5.085 c 0,-39.022 -8.703,-70.222 -26.113,-93.598 -17.416,-23.384 -42.573,-35.077 -75.469,-35.077 -15.324,0 -28.623,3.189 -39.902,9.558 -11.297,6.361 -20.801,15.596 -28.543,27.696 l -5.084,-32.178 h -62.026 v 327.478 l -36.402,7.258 v 42.566 H -95.297 V 105.2 c 7.584,10.477 16.649,25.001 27.211,30.652 10.553,5.646 22.695,8.46 36.402,8.46 33.215,0 58.53,-12.534 75.946,-37.602 C 61.672,81.634 70.375,41.743 70.375,0 Z"
             style="fill:#ffffff;fill-opacity:1;fill-rule:nonzero;stroke:none"
             id="path24"
             inkscape:connector-curvature="0" /></g><g
           id="g26"
           transform="translate(787.4287,448.8389)"><path
             d="m 0,0 34.393,7.364 v 164.874 l -35.278,7.169 v 50.531 l 102.114,0.205 3.197,-45.371 c 8.844,13.597 19.738,24.164 32.679,31.702 12.934,7.53 27.432,11.297 43.487,11.297 26.863,0 47.836,-8.432 62.914,-25.302 15.068,-16.871 22.598,-43.334 22.598,-79.372 V 7.364 L 300.5,0 V -42.993 H 163.391 V 0 l 30.722,7.364 v 115.494 c 0,17.858 -3.605,30.502 -10.812,37.952 -7.207,7.458 -18.1,11.182 -32.68,11.182 -9.502,0 -18.021,-1.918 -25.557,-5.765 -7.533,-3.861 -13.843,-9.303 -18.912,-16.344 L 106.148,7.364 135.133,0 V -42.993 H 0 Z"
             style="fill:#ffffff;fill-opacity:1;fill-rule:nonzero;stroke:none"
             id="path28"
             inkscape:connector-curvature="0" /></g><g
           id="g30"
           transform="translate(1166.54,531.791)"><path
             d="m 0,0 c 0,-23.13 3.914,-41.327 11.721,-54.601 7.824,-13.274 20.527,-19.907 38.113,-19.907 10.918,0 20.152,1.982 27.73,5.978 7.577,3.988 13.639,9.813 18.206,17.467 V 63.759 c -4.567,7.976 -10.629,14.158 -18.206,18.567 -7.568,4.401 -16.65,6.595 -27.232,6.595 -17.434,0 -30.18,-7.738 -38.236,-23.206 C 4.029,50.242 0,30.051 0,5.136 Z m -71.332,5.136 c 0,41.684 9.082,75.315 27.244,100.885 18.16,25.57 43.602,38.355 76.336,38.355 14.822,0 27.857,-3.299 39.096,-9.894 11.232,-6.594 20.845,-15.995 28.817,-28.214 l 5.142,40.876 h 55.586 v -264.169 c 0,-34.839 -4.495,-62.654 -26.395,-83.428 -21.904,-20.765 -52.008,-31.148 -90.273,-31.148 -13.35,0 -27.53,1.836 -42.508,5.494 -14.984,3.672 -28.836,8.672 -41.531,15.034 l 13.193,50.076 c 11.398,-4.881 22.801,-8.75 34.197,-11.607 11.395,-2.84 23.451,-4.268 36.157,-4.268 17.431,0 30.459,5.289 39.089,15.875 8.635,10.596 12.952,25.332 12.952,44.226 v 17.348 c -7.815,-9.94 -17.016,-17.517 -27.612,-22.738 -10.582,-5.204 -22.713,-7.815 -36.39,-7.815 -32.42,0 -57.7,11.939 -75.864,35.799 C -62.26,-70.324 -71.332,-38.929 -71.332,0 Z"
             style="fill:#ffffff;fill-opacity:1;fill-rule:nonzero;stroke:none"
             id="path32"
             inkscape:connector-curvature="0" /></g><g
           id="g34"
           transform="translate(552.7275,274.6201)"><path
             d="M 0,0 C 3.121,0.009 4.865,2.041 4.855,4.872 4.848,7.662 3.053,9.686 -0.018,9.686 L -6.535,9.66 -6.51,-0.018 Z m -0.646,14.592 c 2.65,0.009 4.154,1.896 4.15,4.303 -0.008,2.415 -1.424,4.149 -4.27,4.149 l -5.806,-0.017 0.025,-8.444 z M -12.67,28.257 -0.676,28.282 C 5.365,28.3 9.674,25.195 9.682,19.66 9.689,16.548 8.189,13.852 5.639,12.483 V 12.381 C 9.324,11.301 11.08,7.908 11.09,4.507 11.105,-2.194 5.732,-5.229 -0.451,-5.247 l -12.143,-0.025 z"
             style="fill:#ffffff;fill-opacity:1;fill-rule:nonzero;stroke:none"
             id="path36"
             inkscape:connector-curvature="0" /></g><g
           id="g38"
           transform="translate(570.3506,302.9453)"><path
             d="m 0,0 6.094,0.009 0.076,-28.283 14.49,0.043 0.008,-5.248 -20.578,-0.042 z"
             style="fill:#ffffff;fill-opacity:1;fill-rule:nonzero;stroke:none"
             id="path40"
             inkscape:connector-curvature="0" /></g><g
           id="g42"
           transform="translate(610.3135,274.5186)"><path
             d="M 0,0 C 6.131,0.017 11.029,5.136 11.021,12.023 11.004,18.631 6.08,23.528 -0.059,23.512 -6.199,23.503 -11.098,18.58 -11.08,11.973 -11.063,5.076 -6.148,-0.009 0,0 M -0.076,29.09 C 9.801,29.115 17.279,21.624 17.301,12.04 17.322,2.168 9.881,-5.554 0.008,-5.579 -9.863,-5.596 -17.33,2.083 -17.359,11.955 c -0.026,9.584 7.418,17.118 17.283,17.135"
             style="fill:#ffffff;fill-opacity:1;fill-rule:nonzero;stroke:none"
             id="path44"
             inkscape:connector-curvature="0" /></g><g
           id="g46"
           transform="translate(648.7744,274.6113)"><path
             d="M 0,0 C 2.023,0.009 4.248,0.672 5.852,1.761 L 2.109,5.289 5.588,9.133 9.24,5.502 c 1.125,1.845 1.832,4.107 1.832,6.463 C 11.055,18.632 6.178,23.529 -0.059,23.513 -6.199,23.504 -11.045,18.58 -11.029,11.922 -11.02,5.077 -6.135,-0.017 0,0 M -0.076,29.091 C 9.844,29.116 17.322,21.624 17.34,11.981 17.348,7.926 15.902,4.286 13.691,1.36 l 3.78,-3.401 -3.487,-3.877 -3.738,3.673 C 7.467,-4.37 3.93,-5.562 0.01,-5.578 -9.809,-5.595 -17.287,2.126 -17.312,11.896 -17.33,21.54 -9.889,29.073 -0.076,29.091"
             style="fill:#ffffff;fill-opacity:1;fill-rule:nonzero;stroke:none"
             id="path48"
             inkscape:connector-curvature="0" /></g><g
           id="g50"
           transform="translate(672.2451,303.1914)"><path
             d="m 0,0 6.088,0.018 0.051,-21.497 c 0.017,-4.473 2.951,-7.024 7.431,-7.016 4.491,0.009 7.45,2.568 7.442,7.1 l -0.051,21.438 6.101,0.025 0.055,-21.488 c 0.008,-7.509 -5.418,-12.619 -13.486,-12.644 -8.117,-0.026 -13.559,5.067 -13.58,12.576 z"
             style="fill:#ffffff;fill-opacity:1;fill-rule:nonzero;stroke:none"
             id="path52"
             inkscape:connector-curvature="0" /></g><g
           id="g54"
           transform="translate(707.3076,303.2764)"><path
             d="m 0,0 20.074,0.043 0.008,-5.247 -13.98,-0.034 0.025,-8.783 11.289,0.033 0.014,-5.238 -11.293,-0.034 0.025,-9.013 14.733,0.042 0.007,-5.247 -20.812,-0.051 z"
             style="fill:#ffffff;fill-opacity:1;fill-rule:nonzero;stroke:none"
             id="path56"
             inkscape:connector-curvature="0" /></g><g
           id="g58"
           transform="translate(540.4268,251.3037)"><path
             d="m 0,0 6.094,0.008 12.746,-19.32 c 1.285,-1.93 2.803,-5.187 2.803,-5.187 h 0.097 c 0,0 -0.349,3.206 -0.357,5.196 L 21.34,0.06 27.391,0.068 27.467,-33.461 21.426,-33.47 8.678,-14.184 c -1.276,1.93 -2.801,5.178 -2.801,5.178 H 5.779 c 0,0 0.34,-3.205 0.348,-5.195 l 0.047,-19.312 -6.096,-0.008 z"
             style="fill:#ffffff;fill-opacity:1;fill-rule:nonzero;stroke:none"
             id="path60"
             inkscape:connector-curvature="0" /></g><g
           id="g62"
           transform="translate(587.0771,245.6064)"><path
             d="m 0,0 c 0,0 -0.744,-3.3 -1.402,-5.196 l -2.955,-8.98 8.783,0.026 -3,8.963 C 0.812,-3.3 0.09,0 0.09,0 Z m 5.949,-19.116 -11.756,-0.017 -2.81,-8.605 -6.285,-0.009 11.726,33.555 6.369,0.008 11.889,-33.495 -6.285,-0.017 z"
             style="fill:#ffffff;fill-opacity:1;fill-rule:nonzero;stroke:none"
             id="path64"
             inkscape:connector-curvature="0" /></g><g
           id="g66"
           transform="translate(621.0869,252.0693)"><path
             d="M 0,0 C 8.172,0.017 12.387,-4.559 12.387,-4.559 L 9.469,-9.1 c 0,0 -3.826,3.538 -9.17,3.521 -7.084,-0.017 -11.225,-5.315 -11.209,-11.548 0.017,-6.369 4.32,-11.98 11.31,-11.964 5.817,0.009 9.719,4.278 9.719,4.278 l 3.223,-4.397 c 0,0 -4.617,-5.442 -13.162,-5.459 -10.248,-0.018 -17.344,7.567 -17.369,17.432 C -17.215,-7.509 -9.871,-0.026 0,0"
             style="fill:#ffffff;fill-opacity:1;fill-rule:nonzero;stroke:none"
             id="path68"
             inkscape:connector-curvature="0" /></g><g
           id="g70"
           transform="translate(639.9561,251.542)"><path
             d="M 0,0 6.098,0.008 6.174,-33.513 0.076,-33.529 Z"
             style="fill:#ffffff;fill-opacity:1;fill-rule:nonzero;stroke:none"
             id="path72"
             inkscape:connector-curvature="0" /></g><g
           id="g74"
           transform="translate(669.6299,223.0889)"><path
             d="M 0,0 C 6.135,0.018 11.033,5.128 11.016,12.024 10.998,18.631 6.076,23.529 -0.064,23.521 -6.203,23.504 -11.102,18.58 -11.084,11.973 -11.063,5.076 -6.141,-0.009 0,0 M -0.072,29.091 C 9.795,29.116 17.27,21.624 17.301,12.041 17.316,2.168 9.885,-5.553 0.008,-5.569 c -9.867,-0.027 -17.342,7.653 -17.373,17.525 -0.016,9.583 7.42,17.117 17.293,17.135"
             style="fill:#ffffff;fill-opacity:1;fill-rule:nonzero;stroke:none"
             id="path76"
             inkscape:connector-curvature="0" /></g><g
           id="g78"
           transform="translate(693.0518,251.6689)"><path
             d="m 0,0 6.09,0.018 12.754,-19.337 c 1.275,-1.931 2.799,-5.179 2.799,-5.179 h 0.093 c 0,0 -0.341,3.197 -0.349,5.186 l -0.043,19.372 6.043,0.008 0.076,-33.529 -6.041,-0.018 -12.748,19.287 c -1.276,1.939 -2.797,5.196 -2.797,5.196 H 5.775 c 0,0 0.34,-3.223 0.348,-5.204 L 6.17,-33.512 0.072,-33.521 Z"
             style="fill:#ffffff;fill-opacity:1;fill-rule:nonzero;stroke:none"
             id="path80"
             inkscape:connector-curvature="0" /></g><g
           id="g82"
           transform="translate(739.7021,245.9717)"><path
             d="m 0,0 c 0,0 -0.748,-3.299 -1.406,-5.195 l -2.951,-8.98 8.779,0.017 -3.002,8.971 C 0.805,-3.299 0.094,0 0.094,0 Z m 5.943,-19.107 -11.759,-0.026 -2.811,-8.605 -6.279,-0.017 11.726,33.563 6.377,0.008 11.885,-33.495 -6.281,-0.025 z"
             style="fill:#ffffff;fill-opacity:1;fill-rule:nonzero;stroke:none"
             id="path84"
             inkscape:connector-curvature="0" /></g><g
           id="g86"
           transform="translate(758.9756,251.8311)"><path
             d="m 0,0 6.094,0.008 0.072,-28.282 14.494,0.042 0.008,-5.247 -20.578,-0.05 z"
             style="fill:#ffffff;fill-opacity:1;fill-rule:nonzero;stroke:none"
             id="path88"
             inkscape:connector-curvature="0" /></g><g
           id="g90"
           transform="translate(784.4189,251.8906)"><path
             d="m 0,0 6.092,0.017 0.076,-33.53 -6.096,-0.016 z"
             style="fill:#ffffff;fill-opacity:1;fill-rule:nonzero;stroke:none"
             id="path92"
             inkscape:connector-curvature="0" /></g><g
           id="g94"
           transform="translate(799.8174,226.9922)"><path
             d="m 0,0 c 0,0 3.641,-3.529 8.367,-3.521 2.543,0.009 4.862,1.335 4.844,4.065 -0.008,6.004 -15.826,4.924 -15.846,15.222 -0.017,5.569 4.791,9.745 11.215,9.761 6.611,0.009 10.018,-3.571 10.018,-3.571 L 15.965,16.99 c 0,0 -3.217,2.925 -7.418,2.908 C 5.707,19.89 3.496,18.24 3.5,15.876 3.521,9.924 19.287,11.42 19.312,0.706 19.316,-4.626 15.268,-9.124 8.279,-9.133 0.816,-9.158 -3.295,-4.583 -3.295,-4.583 Z"
             style="fill:#ffffff;fill-opacity:1;fill-rule:nonzero;stroke:none"
             id="path96"
             inkscape:connector-curvature="0" /></g><g
           id="g98"
           transform="translate(832.1006,246.7539)"><path
             d="M 0,0 -11.002,-0.025 -11.02,5.222 17.076,5.289 17.084,0.043 6.08,0.009 6.148,-28.273 0.064,-28.282 Z"
             style="fill:#ffffff;fill-opacity:1;fill-rule:nonzero;stroke:none"
             id="path100"
             inkscape:connector-curvature="0" /></g><g
           id="g102"
           transform="translate(862.4502,246.2695)"><path
             d="m 0,0 c 0,0 -0.748,-3.308 -1.408,-5.204 l -2.949,-8.972 8.783,0.018 -2.998,8.971 C 0.816,-3.308 0.094,0 0.094,0 Z m 5.943,-19.116 -11.755,-0.026 -2.811,-8.605 -6.283,-0.009 L -3.18,5.8 3.189,5.816 15.08,-27.687 8.801,-27.696 Z"
             style="fill:#ffffff;fill-opacity:1;fill-rule:nonzero;stroke:none"
             id="path104"
             inkscape:connector-curvature="0" /></g><g
           id="g106"
           transform="translate(557.4775,199.7383)"><path
             d="m 0,0 c 8.223,0.025 12.479,-4.226 12.479,-4.226 l -3.01,-4.533 c 0,0 -3.594,3.197 -8.938,3.19 -7.508,-0.026 -11.51,-5.222 -11.496,-11.548 0.016,-7.279 5,-11.99 11.266,-11.974 5.051,0.009 8.406,3.513 8.406,3.513 l -0.012,3.92 -5.146,-0.017 -0.016,5.255 10.625,0.017 0.043,-17.661 L 9.01,-34.073 9,-32.466 c 0,0.705 0.043,1.411 0.043,1.411 h -0.09 c 0,0 -3.486,-3.596 -9.715,-3.614 -8.83,-0.008 -16.453,6.82 -16.48,17.348 C -17.258,-7.594 -9.963,-0.025 0,0"
             style="fill:#ffffff;fill-opacity:1;fill-rule:nonzero;stroke:none"
             id="path108"
             inkscape:connector-curvature="0" /></g><g
           id="g110"
           transform="translate(589.1143,193.4375)"><path
             d="m 0,0 c 0,0 -0.748,-3.308 -1.408,-5.196 l -2.949,-8.988 8.783,0.026 -2.998,8.971 C 0.803,-3.3 0.094,0 0.094,0 Z m 5.943,-19.107 -11.752,-0.026 -2.814,-8.614 -6.283,-0.009 11.734,33.555 6.369,0.017 11.883,-33.495 -6.279,-0.017 z"
             style="fill:#ffffff;fill-opacity:1;fill-rule:nonzero;stroke:none"
             id="path112"
             inkscape:connector-curvature="0" /></g><g
           id="g114"
           transform="translate(608.3916,199.2959)"><path
             d="m 0,0 6.098,0.009 0.062,-28.282 14.494,0.033 0.014,-5.238 -20.582,-0.051 z"
             style="fill:#ffffff;fill-opacity:1;fill-rule:nonzero;stroke:none"
             id="path116"
             inkscape:connector-curvature="0" /></g><g
           id="g118"
           transform="translate(633.835,199.3477)"><path
             d="m 0,0 20.059,0.06 0.017,-5.247 -13.98,-0.043 0.025,-8.767 11.285,0.017 0.008,-5.238 -11.283,-0.026 0.025,-9.03 14.727,0.043 0.017,-5.239 -20.828,-0.051 z"
             style="fill:#ffffff;fill-opacity:1;fill-rule:nonzero;stroke:none"
             id="path120"
             inkscape:connector-curvature="0" /></g><g
           id="g122"
           transform="translate(675.7939,200.0186)"><path
             d="m 0,0 c 8.211,0.026 12.471,-4.217 12.471,-4.217 l -3.002,-4.55 c 0,0 -3.606,3.214 -8.938,3.198 -7.508,-0.017 -11.513,-5.221 -11.496,-11.548 0.018,-7.279 4.988,-11.982 11.268,-11.973 5.051,0.017 8.4,3.521 8.4,3.521 l -0.015,3.911 -5.145,-0.008 -0.01,5.246 10.621,0.025 0.043,-17.661 -5.195,-0.017 v 1.607 c 0,0.714 0.043,1.42 0.043,1.42 H 8.951 c 0,0 -3.482,-3.605 -9.721,-3.622 -8.826,-0.018 -16.449,6.819 -16.478,17.347 C -17.273,-7.602 -9.965,-0.017 0,0"
             style="fill:#ffffff;fill-opacity:1;fill-rule:nonzero;stroke:none"
             id="path124"
             inkscape:connector-curvature="0" /></g><g
           id="g126"
           transform="translate(711.7256,171.0137)"><path
             d="M 0,0 C 6.141,0.017 11.037,5.128 11.021,12.024 11.012,18.631 6.09,23.546 -0.051,23.529 -6.199,23.504 -11.088,18.58 -11.08,11.973 -11.063,5.076 -6.135,0 0,0 M -0.068,29.099 C 9.801,29.116 17.279,21.624 17.305,12.041 17.322,2.168 9.891,-5.544 0.018,-5.569 c -9.873,-0.027 -17.348,7.652 -17.37,17.525 -0.025,9.583 7.416,17.117 17.284,17.143"
             style="fill:#ffffff;fill-opacity:1;fill-rule:nonzero;stroke:none"
             id="path128"
             inkscape:connector-curvature="0" /></g><g
           id="g130"
           transform="translate(1200.8291,915.2969)"><path
             d="m 0,0 -28.67,-88.751 109.717,-78.833 h 44.371 z"
             style="fill:#ffffff;fill-opacity:1;fill-rule:nonzero;stroke:none"
             id="path132"
             inkscape:connector-curvature="0" /></g><g
           id="g134"
           transform="translate(1132.7002,813.6406)"><path
             d="m 0,0 34.455,106.819 -90.701,-66.186 -90.949,65.774 34.863,-106.76 -90.068,-65.577 h 115.238 l 28.478,-87.687 4.477,-14.32 16.271,50.383 2.67,8.601 h 0.125 l 0.582,1.733 13.274,41.108 h 0.816 l 0.061,0.182 h 76.883 l 34.519,0.062 z"
             style="fill:#ffffff;fill-opacity:1;fill-rule:nonzero;stroke:none"
             id="path136"
             inkscape:connector-curvature="0" /></g><g
           id="g138"
           transform="translate(873.9307,748.7119)"><path
             d="M 0,0 105.949,78.27 68.602,191.811 C 58.277,188.332 54.289,186.147 45.697,181.387 -25.75,141.833 -39.691,73.337 -41.957,55.733 Z"
             style="fill:#ffffff;fill-opacity:1;fill-rule:nonzero;stroke:none"
             id="path140"
             inkscape:connector-curvature="0" /></g><g
           id="g142"
           transform="translate(1102.8311,1047.6001)"><path
             d="m 0,0 c -44.623,-68.755 -67.666,-81.642 -106.17,-92.535 l 79.736,-57.696 89.977,65.311 z"
             style="fill:#ffffff;fill-opacity:1;fill-rule:nonzero;stroke:none"
             id="path144"
             inkscape:connector-curvature="0" /></g></g></g></g></svg>